<mxfile host="app.diagrams.net" agent="Mozilla/5.0 (Windows NT 10.0; Win64; x64) AppleWebKit/537.36 (KHTML, like Gecko) Chrome/140.0.0.0 Safari/537.36" version="28.2.3" pages="2">
  <diagram name="Trang-1" id="1UK4ejUCu3dEF-kebmzN">
    <mxGraphModel dx="1042" dy="562" grid="1" gridSize="10" guides="1" tooltips="1" connect="1" arrows="1" fold="1" page="1" pageScale="1" pageWidth="827" pageHeight="1169" math="0" shadow="0">
      <root>
        <mxCell id="0" />
        <mxCell id="1" parent="0" />
        <mxCell id="AtRrrX9ElUyKdVfHoUD3-4" style="edgeStyle=orthogonalEdgeStyle;rounded=0;orthogonalLoop=1;jettySize=auto;html=1;exitX=0.5;exitY=1;exitDx=0;exitDy=0;entryX=0.5;entryY=0;entryDx=0;entryDy=0;" edge="1" parent="1" source="sS4BiuHikyCp7FAH_7-U-2" target="AtRrrX9ElUyKdVfHoUD3-2">
          <mxGeometry relative="1" as="geometry" />
        </mxCell>
        <mxCell id="sS4BiuHikyCp7FAH_7-U-2" value="bat dau" style="ellipse;whiteSpace=wrap;html=1;fillColor=#e1d5e7;strokeColor=#9673a6;" parent="1" vertex="1">
          <mxGeometry x="330" y="60" width="120" height="80" as="geometry" />
        </mxCell>
        <mxCell id="sS4BiuHikyCp7FAH_7-U-3" value="có" style="shape=parallelogram;perimeter=parallelogramPerimeter;whiteSpace=wrap;html=1;fixedSize=1;fillColor=#d5e8d4;strokeColor=#82b366;" parent="1" vertex="1">
          <mxGeometry x="190" y="475" width="120" height="60" as="geometry" />
        </mxCell>
        <mxCell id="AtRrrX9ElUyKdVfHoUD3-16" style="edgeStyle=orthogonalEdgeStyle;rounded=0;orthogonalLoop=1;jettySize=auto;html=1;exitX=0.5;exitY=1;exitDx=0;exitDy=0;entryX=1;entryY=0.5;entryDx=0;entryDy=0;" edge="1" parent="1" source="sS4BiuHikyCp7FAH_7-U-9" target="sS4BiuHikyCp7FAH_7-U-10">
          <mxGeometry relative="1" as="geometry" />
        </mxCell>
        <mxCell id="sS4BiuHikyCp7FAH_7-U-9" value="không" style="shape=parallelogram;perimeter=parallelogramPerimeter;whiteSpace=wrap;html=1;fixedSize=1;fillColor=#d5e8d4;strokeColor=#82b366;" parent="1" vertex="1">
          <mxGeometry x="480" y="470" width="120" height="70" as="geometry" />
        </mxCell>
        <mxCell id="sS4BiuHikyCp7FAH_7-U-10" value="kết thúc" style="ellipse;whiteSpace=wrap;html=1;fillColor=#e1d5e7;strokeColor=#9673a6;" parent="1" vertex="1">
          <mxGeometry x="325" y="570" width="120" height="80" as="geometry" />
        </mxCell>
        <mxCell id="AtRrrX9ElUyKdVfHoUD3-11" style="edgeStyle=orthogonalEdgeStyle;rounded=0;orthogonalLoop=1;jettySize=auto;html=1;" edge="1" parent="1" source="AtRrrX9ElUyKdVfHoUD3-2">
          <mxGeometry relative="1" as="geometry">
            <mxPoint x="395" y="260" as="targetPoint" />
          </mxGeometry>
        </mxCell>
        <mxCell id="AtRrrX9ElUyKdVfHoUD3-2" value="nhập điểm của sinh viên" style="shape=parallelogram;perimeter=parallelogramPerimeter;whiteSpace=wrap;html=1;fixedSize=1;fillColor=#dae8fc;strokeColor=#6c8ebf;" vertex="1" parent="1">
          <mxGeometry x="330" y="170" width="130" height="60" as="geometry" />
        </mxCell>
        <mxCell id="AtRrrX9ElUyKdVfHoUD3-5" value="hệ thống xử lí, điểm trung bình , xếp loại" style="shape=parallelogram;perimeter=parallelogramPerimeter;whiteSpace=wrap;html=1;fixedSize=1;fillColor=#dae8fc;strokeColor=#6c8ebf;" vertex="1" parent="1">
          <mxGeometry x="325" y="260" width="130" height="60" as="geometry" />
        </mxCell>
        <mxCell id="AtRrrX9ElUyKdVfHoUD3-14" style="edgeStyle=orthogonalEdgeStyle;rounded=0;orthogonalLoop=1;jettySize=auto;html=1;" edge="1" parent="1" source="AtRrrX9ElUyKdVfHoUD3-12" target="sS4BiuHikyCp7FAH_7-U-3">
          <mxGeometry relative="1" as="geometry" />
        </mxCell>
        <mxCell id="AtRrrX9ElUyKdVfHoUD3-15" style="edgeStyle=orthogonalEdgeStyle;rounded=0;orthogonalLoop=1;jettySize=auto;html=1;entryX=0.5;entryY=0;entryDx=0;entryDy=0;" edge="1" parent="1" source="AtRrrX9ElUyKdVfHoUD3-12" target="sS4BiuHikyCp7FAH_7-U-9">
          <mxGeometry relative="1" as="geometry" />
        </mxCell>
        <mxCell id="AtRrrX9ElUyKdVfHoUD3-12" value="điểm hợp lệ ?" style="rhombus;whiteSpace=wrap;html=1;fillColor=#f8cecc;strokeColor=#b85450;" vertex="1" parent="1">
          <mxGeometry x="340" y="350" width="110" height="90" as="geometry" />
        </mxCell>
        <mxCell id="AtRrrX9ElUyKdVfHoUD3-13" style="edgeStyle=orthogonalEdgeStyle;rounded=0;orthogonalLoop=1;jettySize=auto;html=1;" edge="1" parent="1">
          <mxGeometry relative="1" as="geometry">
            <mxPoint x="394.5" y="350" as="targetPoint" />
            <mxPoint x="394.5" y="320" as="sourcePoint" />
          </mxGeometry>
        </mxCell>
        <mxCell id="AtRrrX9ElUyKdVfHoUD3-17" style="edgeStyle=orthogonalEdgeStyle;rounded=0;orthogonalLoop=1;jettySize=auto;html=1;entryX=-0.012;entryY=0.617;entryDx=0;entryDy=0;entryPerimeter=0;" edge="1" parent="1" source="sS4BiuHikyCp7FAH_7-U-3" target="sS4BiuHikyCp7FAH_7-U-10">
          <mxGeometry relative="1" as="geometry">
            <Array as="points">
              <mxPoint x="240" y="619" />
            </Array>
          </mxGeometry>
        </mxCell>
      </root>
    </mxGraphModel>
  </diagram>
  <diagram id="djIKA59dngn2lazarGHI" name="Trang-2">
    <mxGraphModel dx="1042" dy="562" grid="1" gridSize="10" guides="1" tooltips="1" connect="1" arrows="1" fold="1" page="1" pageScale="1" pageWidth="827" pageHeight="1169" math="0" shadow="0">
      <root>
        <mxCell id="0" />
        <mxCell id="1" parent="0" />
        <mxCell id="9IS1rcEv70MWS4O2A0qg-27" style="edgeStyle=orthogonalEdgeStyle;rounded=0;orthogonalLoop=1;jettySize=auto;html=1;" edge="1" parent="1" source="9IS1rcEv70MWS4O2A0qg-1">
          <mxGeometry relative="1" as="geometry">
            <mxPoint x="375" y="200" as="targetPoint" />
          </mxGeometry>
        </mxCell>
        <mxCell id="9IS1rcEv70MWS4O2A0qg-1" value="bắt đầu&amp;nbsp;" style="ellipse;whiteSpace=wrap;html=1;fillColor=#dae8fc;strokeColor=#6c8ebf;" vertex="1" parent="1">
          <mxGeometry x="300" y="70" width="150" height="90" as="geometry" />
        </mxCell>
        <mxCell id="9IS1rcEv70MWS4O2A0qg-2" value="kết thúc" style="ellipse;whiteSpace=wrap;html=1;fillColor=#dae8fc;strokeColor=#6c8ebf;" vertex="1" parent="1">
          <mxGeometry x="300" y="1250" width="120" height="80" as="geometry" />
        </mxCell>
        <mxCell id="9IS1rcEv70MWS4O2A0qg-3" value="&lt;font style=&quot;font-size: 11px;&quot;&gt;nhập thông tin chuyến bay( địa đi , điểm đến , ngày bay)&lt;/font&gt;" style="shape=parallelogram;perimeter=parallelogramPerimeter;whiteSpace=wrap;html=1;fixedSize=1;fillColor=#ffe6cc;strokeColor=#d79b00;" vertex="1" parent="1">
          <mxGeometry x="300" y="200" width="160" height="80" as="geometry" />
        </mxCell>
        <mxCell id="9IS1rcEv70MWS4O2A0qg-13" style="edgeStyle=orthogonalEdgeStyle;rounded=0;orthogonalLoop=1;jettySize=auto;html=1;exitX=0;exitY=0.5;exitDx=0;exitDy=0;entryX=0.5;entryY=0;entryDx=0;entryDy=0;" edge="1" parent="1" source="9IS1rcEv70MWS4O2A0qg-4" target="9IS1rcEv70MWS4O2A0qg-11">
          <mxGeometry relative="1" as="geometry" />
        </mxCell>
        <mxCell id="9IS1rcEv70MWS4O2A0qg-34" value="có" style="edgeLabel;html=1;align=center;verticalAlign=middle;resizable=0;points=[];" vertex="1" connectable="0" parent="9IS1rcEv70MWS4O2A0qg-13">
          <mxGeometry x="0.38" y="-2" relative="1" as="geometry">
            <mxPoint as="offset" />
          </mxGeometry>
        </mxCell>
        <mxCell id="9IS1rcEv70MWS4O2A0qg-14" style="edgeStyle=orthogonalEdgeStyle;rounded=0;orthogonalLoop=1;jettySize=auto;html=1;exitX=1;exitY=0.5;exitDx=0;exitDy=0;entryX=0.5;entryY=0;entryDx=0;entryDy=0;" edge="1" parent="1" source="9IS1rcEv70MWS4O2A0qg-4" target="9IS1rcEv70MWS4O2A0qg-12">
          <mxGeometry relative="1" as="geometry" />
        </mxCell>
        <mxCell id="9IS1rcEv70MWS4O2A0qg-35" value="không" style="edgeLabel;html=1;align=center;verticalAlign=middle;resizable=0;points=[];" vertex="1" connectable="0" parent="9IS1rcEv70MWS4O2A0qg-14">
          <mxGeometry x="0.3477" y="-3" relative="1" as="geometry">
            <mxPoint as="offset" />
          </mxGeometry>
        </mxCell>
        <mxCell id="9IS1rcEv70MWS4O2A0qg-4" value="Còn chỗ?" style="rhombus;whiteSpace=wrap;html=1;fillColor=#f8cecc;strokeColor=#b85450;" vertex="1" parent="1">
          <mxGeometry x="330" y="570" width="80" height="80" as="geometry" />
        </mxCell>
        <mxCell id="9IS1rcEv70MWS4O2A0qg-10" style="edgeStyle=orthogonalEdgeStyle;rounded=0;orthogonalLoop=1;jettySize=auto;html=1;entryX=0.5;entryY=0;entryDx=0;entryDy=0;" edge="1" parent="1" source="9IS1rcEv70MWS4O2A0qg-5" target="9IS1rcEv70MWS4O2A0qg-4">
          <mxGeometry relative="1" as="geometry" />
        </mxCell>
        <mxCell id="9IS1rcEv70MWS4O2A0qg-5" value="Hệ thống kiểm tra chuyến bay có còn chỗ hay không" style="rounded=1;whiteSpace=wrap;html=1;fillColor=#d5e8d4;strokeColor=#82b366;" vertex="1" parent="1">
          <mxGeometry x="315" y="440" width="120" height="60" as="geometry" />
        </mxCell>
        <mxCell id="9IS1rcEv70MWS4O2A0qg-7" value="nhập thông tin , cá nhân , khách hàng ( họ tên, điện thoại , email,...)" style="shape=parallelogram;perimeter=parallelogramPerimeter;whiteSpace=wrap;html=1;fixedSize=1;fillColor=#ffe6cc;strokeColor=#d79b00;" vertex="1" parent="1">
          <mxGeometry x="300" y="320" width="140" height="80" as="geometry" />
        </mxCell>
        <mxCell id="9IS1rcEv70MWS4O2A0qg-28" style="edgeStyle=orthogonalEdgeStyle;rounded=0;orthogonalLoop=1;jettySize=auto;html=1;entryX=0.5;entryY=0;entryDx=0;entryDy=0;" edge="1" parent="1" source="9IS1rcEv70MWS4O2A0qg-11" target="9IS1rcEv70MWS4O2A0qg-15">
          <mxGeometry relative="1" as="geometry" />
        </mxCell>
        <mxCell id="9IS1rcEv70MWS4O2A0qg-11" value="Chọn chỗ ngồi, hành lý, dịch vụ kèm theo" style="shape=parallelogram;perimeter=parallelogramPerimeter;whiteSpace=wrap;html=1;fixedSize=1;fillColor=#ffe6cc;strokeColor=#d79b00;" vertex="1" parent="1">
          <mxGeometry x="210" y="690" width="120" height="60" as="geometry" />
        </mxCell>
        <mxCell id="9IS1rcEv70MWS4O2A0qg-30" style="edgeStyle=orthogonalEdgeStyle;rounded=0;orthogonalLoop=1;jettySize=auto;html=1;entryX=1;entryY=0.5;entryDx=0;entryDy=0;" edge="1" parent="1" source="9IS1rcEv70MWS4O2A0qg-12" target="9IS1rcEv70MWS4O2A0qg-2">
          <mxGeometry relative="1" as="geometry">
            <mxPoint x="460" y="830" as="targetPoint" />
          </mxGeometry>
        </mxCell>
        <mxCell id="9IS1rcEv70MWS4O2A0qg-12" value="Hiển thị thông báo hết chỗ" style="shape=parallelogram;perimeter=parallelogramPerimeter;whiteSpace=wrap;html=1;fixedSize=1;fillColor=#ffe6cc;strokeColor=#d79b00;" vertex="1" parent="1">
          <mxGeometry x="400" y="690" width="120" height="60" as="geometry" />
        </mxCell>
        <mxCell id="9IS1rcEv70MWS4O2A0qg-32" style="edgeStyle=orthogonalEdgeStyle;rounded=0;orthogonalLoop=1;jettySize=auto;html=1;entryX=0.5;entryY=0;entryDx=0;entryDy=0;" edge="1" parent="1" source="9IS1rcEv70MWS4O2A0qg-15" target="9IS1rcEv70MWS4O2A0qg-16">
          <mxGeometry relative="1" as="geometry" />
        </mxCell>
        <mxCell id="9IS1rcEv70MWS4O2A0qg-15" value="Tính tổng tiền và áp dụng mã khuyến mãi nếu có" style="rounded=1;whiteSpace=wrap;html=1;fillColor=#d5e8d4;strokeColor=#82b366;" vertex="1" parent="1">
          <mxGeometry x="210" y="830" width="120" height="60" as="geometry" />
        </mxCell>
        <mxCell id="9IS1rcEv70MWS4O2A0qg-33" style="edgeStyle=orthogonalEdgeStyle;rounded=0;orthogonalLoop=1;jettySize=auto;html=1;entryX=0.5;entryY=0;entryDx=0;entryDy=0;" edge="1" parent="1" source="9IS1rcEv70MWS4O2A0qg-16" target="9IS1rcEv70MWS4O2A0qg-17">
          <mxGeometry relative="1" as="geometry" />
        </mxCell>
        <mxCell id="9IS1rcEv70MWS4O2A0qg-16" value="&amp;nbsp;Thanh toán (chọn hình thức: thẻ ngân hàng, ví điện tử...)" style="shape=parallelogram;perimeter=parallelogramPerimeter;whiteSpace=wrap;html=1;fixedSize=1;fillColor=#ffe6cc;strokeColor=#d79b00;" vertex="1" parent="1">
          <mxGeometry x="210" y="950" width="120" height="60" as="geometry" />
        </mxCell>
        <mxCell id="9IS1rcEv70MWS4O2A0qg-38" style="edgeStyle=orthogonalEdgeStyle;rounded=0;orthogonalLoop=1;jettySize=auto;html=1;exitX=0.5;exitY=1;exitDx=0;exitDy=0;entryX=0.5;entryY=0;entryDx=0;entryDy=0;" edge="1" parent="1" source="9IS1rcEv70MWS4O2A0qg-17" target="9IS1rcEv70MWS4O2A0qg-37">
          <mxGeometry relative="1" as="geometry" />
        </mxCell>
        <mxCell id="9IS1rcEv70MWS4O2A0qg-17" value="&amp;nbsp;Hệ thống lưu thông tin đặt vé vào cơ sở dữ liệu" style="rounded=1;whiteSpace=wrap;html=1;fillColor=#d5e8d4;strokeColor=#82b366;" vertex="1" parent="1">
          <mxGeometry x="210" y="1050" width="120" height="60" as="geometry" />
        </mxCell>
        <mxCell id="9IS1rcEv70MWS4O2A0qg-23" style="edgeStyle=orthogonalEdgeStyle;rounded=0;orthogonalLoop=1;jettySize=auto;html=1;exitX=0.5;exitY=1;exitDx=0;exitDy=0;" edge="1" parent="1">
          <mxGeometry relative="1" as="geometry">
            <mxPoint x="374.5" y="320" as="targetPoint" />
            <mxPoint x="374.5" y="280" as="sourcePoint" />
          </mxGeometry>
        </mxCell>
        <mxCell id="9IS1rcEv70MWS4O2A0qg-25" style="edgeStyle=orthogonalEdgeStyle;rounded=0;orthogonalLoop=1;jettySize=auto;html=1;exitX=0.5;exitY=1;exitDx=0;exitDy=0;" edge="1" parent="1">
          <mxGeometry relative="1" as="geometry">
            <mxPoint x="374.5" y="440" as="targetPoint" />
            <mxPoint x="374.5" y="400" as="sourcePoint" />
          </mxGeometry>
        </mxCell>
        <mxCell id="9IS1rcEv70MWS4O2A0qg-39" style="edgeStyle=orthogonalEdgeStyle;rounded=0;orthogonalLoop=1;jettySize=auto;html=1;exitX=0.5;exitY=1;exitDx=0;exitDy=0;entryX=0;entryY=0.5;entryDx=0;entryDy=0;" edge="1" parent="1" source="9IS1rcEv70MWS4O2A0qg-37" target="9IS1rcEv70MWS4O2A0qg-2">
          <mxGeometry relative="1" as="geometry" />
        </mxCell>
        <mxCell id="9IS1rcEv70MWS4O2A0qg-37" value="Gửi vé điện tử qua email hoặc SMS" style="shape=parallelogram;perimeter=parallelogramPerimeter;whiteSpace=wrap;html=1;fixedSize=1;fillColor=#ffe6cc;strokeColor=#d79b00;" vertex="1" parent="1">
          <mxGeometry x="210" y="1140" width="120" height="60" as="geometry" />
        </mxCell>
      </root>
    </mxGraphModel>
  </diagram>
</mxfile>
